<?xml version="1.0" encoding="utf-8"?>
<!-- Generator: Adobe Illustrator 26.2.1, SVG Export Plug-In . SVG Version: 6.00 Build 0)  -->
<svg version="1.1" id="Layer_1" xmlns="http://www.w3.org/2000/svg" xmlns:xlink="http://www.w3.org/1999/xlink" x="0px" y="0px"
	 viewBox="0 0 20 21" style="enable-background:new 0 0 20 21;" xml:space="preserve">
<style type="text/css">
	.st0{fill:#FFFFFF;}
</style>
<path class="st0" d="M38.5,18.4c0-0.7-0.1-1.4,0-2c0.1-1.5,0.9-2.2,2.4-2.5c0.4-0.1,0.7-0.1,1.1-0.1c0.5,0,1.1,0,1.7,0.1
	c0,0.8,0,1.5,0,2.3c0,0.1-0.2,0.2-0.3,0.2c-0.4,0.1-0.9,0.1-1.3,0.2c-0.1,0-0.3,0.2-0.3,0.3c0,0.5,0,1,0,1.5c0.4,0,0.9,0,1.3,0
	c0.6,0,0.7,0.1,0.7,0.7c0,0.5-0.1,1.1-0.1,1.6c0,0.3-0.2,0.4-0.4,0.4c-0.5,0-1,0.1-1.5,0.1c0,2.3,0,4.6,0,6.9c-1.1,0-2.1,0-3.1,0
	c0-0.4,0-0.8,0-1.2c0-1.7,0-3.4,0-5.1c0-0.5-0.1-0.6-0.6-0.7c-0.8-0.1-0.8-0.1-0.8-0.9c0-0.5,0-0.9,0-1.4c0-0.3,0-0.4,0.4-0.4
	C37.8,18.5,38.1,18.4,38.5,18.4z"/>
<path class="st0" d="M3.1,47.7c1.4-0.2,2.6-0.4,3.7-1.2c-0.4-0.2-0.7-0.3-1-0.5c-0.4-0.3-0.7-0.6-1-1S4.5,44.5,5,44.2
	c-0.9-0.7-1.5-1.5-1.5-2.7c0.3,0,0.5,0.1,0.8,0.1C3.6,40.4,3,39.3,4,38c1.5,1.6,3.3,2.7,5.5,2.8c0.1-0.5,0.2-1,0.3-1.5
	c0.6-1.8,2.9-2.6,4.5-1.4c0.4,0.3,0.7,0.4,1.1,0.2c0.3-0.2,0.7-0.2,1.1-0.3c0,0.3,0,0.3-0.6,1.3c0.3-0.1,0.6-0.1,0.9-0.2l0.1,0.1
	c-0.3,0.3-0.5,0.6-0.7,1c-0.2,0.2-0.3,0.5-0.4,0.8c-0.3,1.4-0.5,2.8-1.2,4c-1.4,2.4-3.4,3.8-6.2,4.1c-1.7,0.2-3.3-0.1-4.8-0.9
	C3.5,48,3.3,47.9,3.1,47.7z"/>
<g>
	<path class="st0" d="M16.1,10.4c0,1.1,0,2.2,0,3.3c0,1.7-1.3,3-2.9,3c-2.1,0-4.1,0-6.2,0c-1.9,0-3.1-1.3-3.1-3.1c0-2.1,0-4.1,0-6.2
		c0-1.7,1.5-3.1,3.1-3.1c1.9,0.1,3.7,0,5.6,0c0.7,0,1.4,0,2,0.4c0.9,0.6,1.6,1.4,1.6,2.6C16.1,8.3,16.1,9.4,16.1,10.4z M5.2,9.8
		c0,1.2,0,2.5,0,3.7c0,1.1,0.7,1.9,1.8,1.9c2,0,3.9,0,5.9,0c1.2,0,1.9-0.7,1.9-2c0-0.4,0-0.9,0-1.3c0-0.8,0-1.5,0-2.3
		c-0.7,0-1.3,0-1.9,0c0.2,1,0.2,1.9-0.4,2.7c-0.5,0.8-1.3,1.4-2.3,1.4c-0.8,0-1.5-0.3-2.2-0.8C7,12.2,7,11,7.1,9.8
		C6.5,9.8,5.9,9.8,5.2,9.8z M5.2,8.4c0.4,0,0.7,0,1,0c1.1,0,2.1,0,3.1-0.5C9.9,7.7,10.5,7.7,11,8c0.4,0.2,0.8,0.3,1.1,0.3
		c0.9,0,1.7,0,2.6,0c0-0.3,0-0.6,0-0.9c-0.1-1-0.8-1.8-1.7-1.8c-2.1,0-4.1,0-6.2,0c-0.9,0-1.6,0.6-1.7,1.5C5.2,7.5,5.2,7.9,5.2,8.4z
		 M10.1,9.8c-0.6,0-1,0.3-1,1c0,0.6,0.4,1.1,0.9,1.1c0.6,0,1.1-0.5,1.1-1.1S10.7,9.8,10.1,9.8z"/>
	<path class="st0" d="M13.2,7.9c-0.9,0-0.9,0-0.9-0.9c0-0.1,0-0.1,0-0.2c0-0.7,0.2-0.9,0.9-0.9c0.6,0,1,0.4,1,0.9
		C14.2,7.8,14.1,7.9,13.2,7.9z"/>
</g>
</svg>
