<?xml version="1.0" encoding="utf-8"?>
<!-- Generator: Adobe Illustrator 26.2.1, SVG Export Plug-In . SVG Version: 6.00 Build 0)  -->
<svg version="1.1" id="Layer_1" xmlns="http://www.w3.org/2000/svg" xmlns:xlink="http://www.w3.org/1999/xlink" x="0px" y="0px"
	 viewBox="0 0 20 21" style="enable-background:new 0 0 20 21;" xml:space="preserve">
<style type="text/css">
	.st0{fill:#FFFFFF;}
	.st1{fill:#4F4F4F;}
</style>
<path class="st0" d="M38.5,18.4c0-0.7-0.1-1.4,0-2c0.1-1.5,0.9-2.2,2.4-2.5c0.4-0.1,0.7-0.1,1.1-0.1c0.5,0,1.1,0,1.7,0.1
	c0,0.8,0,1.5,0,2.3c0,0.1-0.2,0.2-0.3,0.2c-0.4,0.1-0.9,0.1-1.3,0.2c-0.1,0-0.3,0.2-0.3,0.3c0,0.5,0,1,0,1.5c0.4,0,0.9,0,1.3,0
	c0.6,0,0.7,0.1,0.7,0.7c0,0.5-0.1,1.1-0.1,1.6c0,0.3-0.2,0.4-0.4,0.4c-0.5,0-1,0.1-1.5,0.1c0,2.3,0,4.6,0,6.9c-1.1,0-2.1,0-3.1,0
	c0-0.4,0-0.8,0-1.2c0-1.7,0-3.4,0-5.1c0-0.5-0.1-0.6-0.6-0.7c-0.8-0.1-0.8-0.1-0.8-0.9c0-0.5,0-0.9,0-1.4c0-0.3,0-0.4,0.4-0.4
	C37.8,18.5,38.1,18.4,38.5,18.4z"/>
<path class="st0" d="M3.5,15.6c1.4-0.2,2.6-0.4,3.7-1.2c-0.4-0.2-0.7-0.3-1-0.5c-0.4-0.3-0.7-0.6-1-1s-0.3-0.5,0.2-0.8
	c-0.9-0.7-1.5-1.5-1.5-2.7c0.3,0,0.5,0.1,0.8,0.1C4,8.3,3.4,7.2,4.4,5.9c1.5,1.6,3.3,2.7,5.5,2.8c0.1-0.5,0.2-1,0.3-1.5
	c0.6-1.8,2.9-2.6,4.5-1.4c0.4,0.3,0.7,0.4,1.1,0.2c0.3-0.2,0.7-0.2,1.1-0.3c0,0.3,0,0.3-0.6,1.3c0.3-0.1,0.6-0.1,0.9-0.2l0.1,0.1
	c-0.3,0.3-0.5,0.6-0.7,1c-0.2,0.2-0.3,0.5-0.4,0.8c-0.3,1.4-0.5,2.8-1.2,4c-1.4,2.4-3.4,3.8-6.2,4.1C7.1,17,5.5,16.7,4,15.9
	C3.9,15.9,3.7,15.8,3.5,15.6z"/>
<g>
	<path class="st1" d="M-45.9,49.2c0,1.1,0,2.2,0,3.3c0,1.7-1.3,3-2.9,3c-2.1,0-4.1,0-6.2,0c-1.9,0-3.1-1.3-3.1-3.1
		c0-2.1,0-4.1,0-6.2c0-1.7,1.5-3.1,3.1-3.1c1.9,0.1,3.7,0,5.6,0c0.7,0,1.4,0,2,0.4c0.9,0.6,1.6,1.4,1.6,2.6
		C-45.9,47.1-45.9,48.2-45.9,49.2z M-56.8,48.6c0,1.2,0,2.5,0,3.7c0,1.1,0.7,1.9,1.8,1.9c2,0,3.9,0,5.9,0c1.2,0,1.9-0.7,1.9-2
		c0-0.4,0-0.9,0-1.3c0-0.8,0-1.5,0-2.3c-0.7,0-1.3,0-1.9,0c0.2,1,0.2,1.9-0.4,2.7c-0.5,0.8-1.3,1.4-2.3,1.4c-0.8,0-1.5-0.3-2.2-0.8
		c-1-0.9-1-2.1-0.9-3.3C-55.5,48.6-56.1,48.6-56.8,48.6z M-56.8,47.2c0.4,0,0.7,0,1,0c1.1,0,2.1,0,3.1-0.5c0.6-0.2,1.2-0.2,1.7,0.1
		c0.4,0.2,0.8,0.3,1.1,0.3c0.9,0,1.7,0,2.6,0c0-0.3,0-0.6,0-0.9c-0.1-1-0.8-1.8-1.7-1.8c-2.1,0-4.1,0-6.2,0c-0.9,0-1.6,0.6-1.7,1.5
		C-56.8,46.3-56.8,46.7-56.8,47.2z M-51.9,48.6c-0.6,0-1,0.3-1,1c0,0.6,0.4,1.1,0.9,1.1c0.6,0,1.1-0.5,1.1-1.1S-51.3,48.6-51.9,48.6
		z"/>
	<path class="st1" d="M-48.8,46.7c-0.9,0-0.9,0-0.9-0.9c0-0.1,0-0.1,0-0.2c0-0.7,0.2-0.9,0.9-0.9c0.6,0,1,0.4,1,0.9
		C-47.8,46.6-47.9,46.7-48.8,46.7z"/>
</g>
</svg>
