<?xml version="1.0" encoding="utf-8"?>
<!-- Generator: Adobe Illustrator 26.2.1, SVG Export Plug-In . SVG Version: 6.00 Build 0)  -->
<svg version="1.1" id="Layer_1" xmlns="http://www.w3.org/2000/svg" xmlns:xlink="http://www.w3.org/1999/xlink" x="0px" y="0px"
	 viewBox="0 0 24 21" style="enable-background:new 0 0 24 21;" xml:space="preserve">
<style type="text/css">
	.st0{fill-rule:evenodd;clip-rule:evenodd;fill:#00876E;}
</style>
<path class="st0" d="M16.7,7.6H7.3c-0.6,0-1.1-0.5-1.1-1.1v0c0-0.6,0.5-1.1,1.1-1.1h9.4c0.6,0,1.1,0.5,1.1,1.1v0
	C17.8,7.1,17.3,7.6,16.7,7.6z"/>
<path class="st0" d="M16.7,11.6H7.3c-0.6,0-1.1-0.5-1.1-1.1v0c0-0.6,0.5-1.1,1.1-1.1h9.4c0.6,0,1.1,0.5,1.1,1.1v0
	C17.8,11.1,17.3,11.6,16.7,11.6z"/>
<path class="st0" d="M16.7,15.6H7.3c-0.6,0-1.1-0.5-1.1-1.1v0c0-0.6,0.5-1.1,1.1-1.1h9.4c0.6,0,1.1,0.5,1.1,1.1v0
	C17.8,15.1,17.3,15.6,16.7,15.6z"/>
<path class="st0" d="M-14.5,5.7h-11.3c-0.4,0-0.8-0.4-0.8-0.8v0c0-0.4,0.4-0.8,0.8-0.8h11.3c0.4,0,0.8,0.4,0.8,0.8v0
	C-13.7,5.3-14.1,5.7-14.5,5.7z"/>
<path class="st0" d="M-14.5,10.5h-11.3c-0.4,0-0.8-0.4-0.8-0.8v0c0-0.4,0.4-0.8,0.8-0.8h11.3c0.4,0,0.8,0.4,0.8,0.8v0
	C-13.7,10.1-14.1,10.5-14.5,10.5z"/>
<path class="st0" d="M-14.5,15.3h-11.3c-0.4,0-0.8-0.4-0.8-0.8v0c0-0.4,0.4-0.8,0.8-0.8h11.3c0.4,0,0.8,0.4,0.8,0.8v0
	C-13.7,15-14.1,15.3-14.5,15.3z"/>
</svg>
