<?xml version="1.0" encoding="utf-8"?>
<!-- Generator: Adobe Illustrator 26.2.1, SVG Export Plug-In . SVG Version: 6.00 Build 0)  -->
<svg version="1.1" id="Layer_1" xmlns="http://www.w3.org/2000/svg" xmlns:xlink="http://www.w3.org/1999/xlink" x="0px" y="0px"
	 viewBox="0 0 20 21" style="enable-background:new 0 0 20 21;" xml:space="preserve">
<style type="text/css">
	.st0{fill-rule:evenodd;clip-rule:evenodd;fill:#00876E;}
</style>
<path class="st0" d="M5.8,13.2l6.9-6.9c0.4-0.4,1.1-0.4,1.6,0l0,0c0.4,0.4,0.4,1.1,0,1.6l-6.9,6.9c-0.4,0.4-1.1,0.4-1.6,0l0,0
	C5.3,14.3,5.3,13.6,5.8,13.2z"/>
<path class="st0" d="M14.2,13.2L7.3,6.3c-0.4-0.4-1.1-0.4-1.6,0l0,0c-0.4,0.4-0.4,1.1,0,1.6l6.9,6.9c0.4,0.4,1.1,0.4,1.6,0l0,0
	C14.7,14.3,14.7,13.6,14.2,13.2z"/>
</svg>
